<svg xmlns="http://www.w3.org/2000/svg" viewBox="0 0 512 512">
  <!-- Arka plan -->
  <rect width="512" height="512" rx="96" fill="#16a34a"/>

  <!-- Drone gövdesi -->
  <rect x="206" y="232" width="100" height="48" rx="12" fill="white"/>

  <!-- Kol: sol-sağ -->
  <rect x="68" y="244" width="140" height="24" rx="12" fill="white"/>
  <rect x="304" y="244" width="140" height="24" rx="12" fill="white"/>

  <!-- Kol: ön-arka -->
  <rect x="232" y="104" width="24" height="140" rx="12" fill="white"/>
  <rect x="256" y="268" width="24" height="140" rx="12" fill="white"/>

  <!-- Sol-üst pervane -->
  <ellipse cx="138" cy="174" rx="72" ry="16" fill="white" opacity="0.92"/>
  <circle cx="138" cy="174" r="10" fill="#15803d"/>

  <!-- Sağ-üst pervane -->
  <ellipse cx="374" cy="174" rx="72" ry="16" fill="white" opacity="0.92"/>
  <circle cx="374" cy="174" r="10" fill="#15803d"/>

  <!-- Sol-alt pervane -->
  <ellipse cx="138" cy="338" rx="72" ry="16" fill="white" opacity="0.92"/>
  <circle cx="138" cy="338" r="10" fill="#15803d"/>

  <!-- Sağ-alt pervane -->
  <ellipse cx="374" cy="338" rx="72" ry="16" fill="white" opacity="0.92"/>
  <circle cx="374" cy="338" r="10" fill="#15803d"/>

  <!-- Kamera -->
  <circle cx="256" cy="296" r="18" fill="#14532d"/>
  <circle cx="256" cy="296" r="9" fill="white" opacity="0.4"/>
</svg>
